<svg xmlns="http://www.w3.org/2000/svg" width="128" height="128" fill="none" viewBox="0 0 128 128"><path fill="#333641" d="M57.82 14.35c.36 0 .73 0 1 .25 1.25 1.14 1.49 5.23 1.68 6.87.4-.8 1.65-4.18 2.85-2.94.64.65.4 2.26.25 3.13-.3 1.66-.58 3.61-1.5 5.06-.94 1.39-.97 1.43-.98 3.07 1.26-.11 2.8-.37 4.12-.5 1.74-2.27 2.9-3.54 5.9-3.97 4.52-.62 9.33.35 13.5 2.12 2.81 1.2 4.18 1.73 4.68 4.88 3.86 1.55 9.08 4.2 10.8 8.27.44 1.04.7 2.33 1.03 3.44 1.39 1.12 2.56 2.28 3.11 4.03.99 3.08-.19 7.58-1.64 10.36.3-.05.86-.13 1.13-.22 7.3-2.44 6.37.48 6.36 6.93l-.01 10.12q.06 5.95.01 11.92c0 2.47.28 5.13-.43 7.5a11 11 0 0 1-5.47 6.3c-2.36 1.06-4.9 1.98-7.3 2.92l-11.94 4.74-10.83 4.29c-2.56 1.02-5.52 2.3-8.2 2.89-1.65.36-3.43-.16-5-.67-2.24-.81-4.34-1.7-6.54-2.56l-15.57-6.07-9.41-3.69c-1.92-.75-4.73-1.74-6.45-2.75a11 11 0 0 1-3.9-3.86 11 11 0 0 1-1.49-4.5c-.16-1.55-.09-3.89-.09-5.49l.01-9.44V64.33c0-1.75-.1-4.09.16-5.79.11-.78 1.07-1.51 1.73-1.9-.41-.98-.96-2.96-1.28-4.02q-1.17-3.9-2.3-7.83l-3.29-11.13c-.38-1.27-.85-2.5-1.2-3.76.4-1.15.79-1.44 1.94-1.8 2.11-.67 4.26-1.24 6.4-1.8l12.18-3.2q6.88-1.89 13.78-3.64c1.67-.43 3.32-1 5-1.35 1.2-.2 1.95.17 2.31 1.35 1.18 3.9 2.25 7.85 3.55 11.7q1.05-.48 2.16-.77c-.15-3.3-.6-2.35-1.52-5.06-.84-2.43-.87-7.23-.23-9.74.17-.68.36-.92.94-1.23"/><path fill="#fff" d="M21.18 59.95c2.43.37 4.77.94 7.16 1.42q4.32.87 8.63 1.8c1.8 3.05 4.38 4 7.74 4.5 2.82.42 5.92.21 8.26-1.6 2.02.5 4.55.91 6.6 1.34 1.65.34 4.73.99 6.32 1.02 1.73.04 4.86-.6 6.64-.9 4.72-.8 9.28-1.77 14.03-2.43q.28.45.63.83c3.12 3.32 10.9 2.66 13.99-.47 1.3-1.33 1.6-2.42 1.63-4.2q1.92-.3 3.8-.81l.07 21.15.02 5.42c.04 3.97.23 6.59-3.15 9.38-1.6 1.18-4.47 2.26-6.38 3.04l-10.08 4.02-13.33 5.25c-2.18.87-4.33 1.82-6.52 2.64a6.3 6.3 0 0 1-4.85.1c-2.15-.77-4.25-1.64-6.37-2.49l-9.97-3.93-12.13-4.73c-2.57-1-5.16-2-7.67-3.14a9 9 0 0 1-2.9-1.99c-2.4-2.36-2.2-5.6-2.2-8.68v-6.36c.01-6.7-.07-13.5.03-20.18"/><path fill="#333641" d="M26.46 67.14c.49-.02.9.01 1.24.4q.25.3.32.66c.11.6.07 2.09.07 2.76q.02 2.38-.03 4.75-.31.62-.91.98c-1.31.1-1.55-1-1.53-2.06.02-2.26-.1-4.6.05-6.87.25-.25.5-.42.79-.62m74.24.07q.25-.01.48.05.53.12.8.58c.3.5.32 7.49.08 8.15-.12.36-.61.58-.94.73a1.3 1.3 0 0 1-1.24-.77c-.24-.57-.3-7.3-.07-7.91.16-.43.5-.64.9-.82m.2 20.25c1.38.04 1.45 1.7 1.4 2.71-.06 1.38.34 2.88-1.15 3.57-2-.45-1.35-3.7-1.3-5.22.01-.47.68-.86 1.06-1.06m-74.57.08c2.4-.27 1.72 2.74 1.76 4.2.02.72-.3 1.24-.82 1.69-.88.14-1.09-.1-1.6-.73-.17-.94-.17-2.86-.1-3.83.05-.67.27-.95.76-1.33m.02-8.4c2.44-.42 1.73 3.13 1.7 4.53 0 .63-.36 1-.82 1.33-1.58.29-1.76-1.47-1.7-2.59.06-1.22-.25-2.47.82-3.28m74.44-.02q.32.02.62.13c1.1.43.78 2.19.8 3.21.02 1.24.2 2.2-1.1 2.65-.45-.1-.96-.26-1.14-.76a8.6 8.6 0 0 1-.07-4.46c.1-.4.56-.62.9-.77"/><path fill="#fff" d="M66.48 31.6c2.88-.18 7.44 0 10.32.44 6.58 1.07 15.07 2.29 19.64 7.68 2.07 2.45 1.59 5.88 1.5 8.81a68 68 0 0 1-.53 6.86c-3.16-1.07-6.95-.75-9.6 1.48-1.44 1.21-1.83 3.26-1.91 5.06q-1.74.34-3.48.56c-7.78 1.07-20.73.92-27.9-1.98-.3-3.3-1.02-4.03-3.6-5.97-.52-2.07.42-13.18 1.1-15.3a9 9 0 0 1 1.8-3.13c2.99-3.38 8.38-4.25 12.66-4.5"/><path fill="#333641" d="M86.78 43.77c5.09.42 4.46 10.57-.42 11.16-4.9-.5-4.85-10.4.42-11.16m-24.43-2.63c1.9-.08 3 1.21 3.53 2.93a7.6 7.6 0 0 1-.6 5.84 4 4 0 0 1-2.56 2.2c-5.24.45-5.38-9.75-.37-10.97m6.7 11.05c.17-.03.53-.08.68 0 1.28.6 2.45 1.89 3.93 2.12 1.6.4 3.37-1.07 4.74-1.1 2.01-.03.9 1.75.2 2.48l-.1.09a6.6 6.6 0 0 1-4.93 1.42c-1.85-.2-5.21-1.8-5.18-4.22 0-.38.36-.6.65-.79"/><path fill="#fff" d="M49.45 21.06c.22-.02.71-.07.88.07.64.52.92 1.68 1.16 2.42l.6 1.95q1.05 3.48 2 6.98c-1.86 1.23-3.44 2.7-4.28 4.84-.36.9-.62 1.82-1 2.72-1.54 1.04-2.74 1.38-3.58 3.25-1.36 3-1.22 7.36-.1 10.4-3.65.41-8.03 2.48-8.57 6.52-1.48-.48-3.2-.7-4.75-1q-4.42-.82-8.81-1.75c-.31-.05-.57-.13-.87-.22-1.31-4.16-2.42-8.68-3.72-12.9-1.32-4.3-2.85-9.1-3.93-13.42.3-.4.6-.76 1.08-.93 1.3-.45 2.76-.76 4.1-1.1l6.44-1.7 15.45-4.07c2.63-.68 5.25-1.44 7.9-2.06"/><path fill="#333641" d="M32 43.23c.4-.03.78-.04 1.14.13a1 1 0 0 1 .6.72c.26.92-2.64 6.78-3.27 7.85-.23.4-.5.72-.98.83-.85.17-2.07-1-2.75-1.47-.58-.44-1.98-1.2-1.87-1.89.48-3.12 3.04-.68 3.82-.02.6-1.01 1.01-1.99 1.5-3.05.47-1.02.86-2.5 1.8-3.1M28.78 32.6c1.04-.07 1.39.25 1.79 1.15-.32 1.38-1.3 3.08-1.88 4.41q-.65 1.43-1.32 2.85c-1.04 2.15-2.45.73-3.8-.23-.68-.46-1.81-1.06-1.98-1.84a1.3 1.3 0 0 1 .23-1.04c1.01-1.37 2.7.2 3.56.92 1.07-1.88 1.75-3.94 2.84-5.75q.24-.3.56-.47m18.52-.24c1.17-.1 1.75.46 1.18 1.29-.5.73-4.52 1.63-5.28 1.84q-3.84 1.04-7.64 2.14c-1.43.2-2.17-1.26-.23-1.84 3.32-1 6.68-1.84 9.99-2.89q.97-.32 1.98-.54m-4.6 12.27h.14c.25.33.04 1.18-.03 1.64-.91.4-4.24 1.6-5.1 1.41-1.45-1.29.74-1.96 1.72-2.22 1.1-.3 2.15-.65 3.27-.84"/><path fill="#fff" d="M45.36 56.03h.16c2.76-.2 6.21.7 6.4 4.1.1 2.05.2 4.86-2.64 5.2-.78.1-1.35-.42-1.89-.92-.72.93-.74 1.19-1.98 1.15-1.81-.15-2.13-.8-2.91-2.3-.24.47-.38.91-.55 1.4-1.45-.66-2.8-1.72-2.91-3.4-.25-3.56 3.46-4.96 6.32-5.22m47.56.94c1.5-.27 3.72.15 5.11.83 3.22 1.57 3.38 5.98 0 7.46-.18.07-.22.03-.35-.05-.15-.36-.13-1.02-.14-1.43-.6.73-.6 1.32-1.4 1.9-.95.33-1.47.32-2.46.34l-.96-1.6c-.34.38-.87 1.14-1.36 1.22-1.08.19-2.85-1-2.9-2.14-.16-4.01.18-5.93 4.46-6.53"/></svg>
